<svg width="100" height="100" viewBox="0 0 100 100" fill="none" xmlns="http://www.w3.org/2000/svg">
<filter id="shadow" x="-50%" y="-50%" width="200%" height="200%">
  <feDropShadow dx="2" dy="4" stdDeviation="3" flood-opacity="0.3"/>
</filter>
<g filter="url(#shadow)" transform="rotate(-15 50 50)">
  <!-- Needle -->
  <path d="M50 85L50 55" stroke="#9ca3af" stroke-width="4" stroke-linecap="round"/>
  <!-- Plastic Head Body -->
  <path d="M50 58C50 58 65 55 65 40C65 25 58 20 50 15C42 20 35 25 35 40C35 55 50 58 50 58Z" fill="#fbbf24"/>
  <path d="M50 58C50 58 65 55 65 40C65 25 58 20 50 15C42 20 35 25 35 40C35 55 50 58 50 58Z" stroke="#d97706" stroke-width="1"/>
  <!-- Highlight -->
  <ellipse cx="45" cy="30" rx="3" ry="6" fill="white" fill-opacity="0.4"/>
  <!-- Top Flat Part -->
  <circle cx="50" cy="15" r="8" fill="#f59e0b" stroke="#b45309" stroke-width="1"/>
</g>
</svg>
